M48
;GenerationSoftware,Autodesk,EAGLE,9.1.1*%
;CreationDate,2018-09-28T16:37:10Z*%
FMAT,2
ICI,OFF
METRIC,TZ,000.000
T6C0.800
T5C0.900
T4C1.016
T3C1.270
T2C1.300
T1C3.200
%
G90
M71
T1
X46990Y40640
X46990Y25400
X46990Y10160
T2
X37100Y54610
X42900Y54610
X40100Y49810
T3
X29210Y38100
X29210Y40640
X29210Y43180
X29210Y22860
X29210Y25400
X29210Y27940
X29210Y7620
X29210Y10160
X29210Y12700
T4
X20320Y51943
X20320Y54737
X30480Y49530
X30226Y52070
X30480Y54610
X30226Y57150
X15240Y58420
X15494Y55880
X15240Y53340
X15494Y50800
X15240Y48260
T5
X10160Y48260
X10160Y55880
X6350Y55880
X6350Y48260
T6
X20320Y38100
X20320Y33020
X20320Y30480
X20320Y27940
X20320Y25400
X20320Y22860
X20320Y20320
X20320Y17780
X20320Y15240
X20320Y12700
X5080Y40640
X5080Y38100
X5080Y35560
X5080Y20320
X5080Y17780
X5080Y15240
X5080Y12700
X5080Y5080
X20320Y5080
X20320Y7620
X20320Y10160
X5080Y7620
X5080Y10160
X5080Y33020
X5080Y22860
X5080Y25400
X5080Y27940
X5080Y30480
X20320Y40640
X20320Y35560
M30