G04 EAGLE Gerber X2 export*
%TF.Part,Single*%
%TF.FileFunction,Profile,NP*%
%TF.FilePolarity,Positive*%
%TF.GenerationSoftware,Autodesk,EAGLE,9.1.1*%
%TF.CreationDate,2018-09-28T16:37:10Z*%
G75*
%MOMM*%
%FSLAX34Y34*%
%LPD*%
%AMOC8*
5,1,8,0,0,1.08239X$1,22.5*%
G01*
%ADD10C,0.254000*%


D10*
X0Y25400D02*
X97Y23186D01*
X386Y20989D01*
X865Y18826D01*
X1532Y16713D01*
X2380Y14666D01*
X3403Y12700D01*
X4594Y10831D01*
X5942Y9073D01*
X7440Y7440D01*
X9073Y5942D01*
X10831Y4594D01*
X12700Y3403D01*
X14666Y2380D01*
X16713Y1532D01*
X18826Y865D01*
X20989Y386D01*
X23186Y97D01*
X25400Y0D01*
X507800Y0D01*
X510014Y97D01*
X512211Y386D01*
X514374Y865D01*
X516487Y1532D01*
X518535Y2380D01*
X520500Y3403D01*
X522369Y4594D01*
X524127Y5942D01*
X525761Y7440D01*
X527258Y9073D01*
X528606Y10831D01*
X529797Y12700D01*
X530820Y14666D01*
X531668Y16713D01*
X532335Y18826D01*
X532814Y20989D01*
X533103Y23186D01*
X533200Y25400D01*
X533200Y593600D01*
X533103Y595814D01*
X532814Y598011D01*
X532335Y600174D01*
X531668Y602287D01*
X530820Y604335D01*
X529797Y606300D01*
X528606Y608169D01*
X527258Y609927D01*
X525761Y611561D01*
X524127Y613058D01*
X522369Y614406D01*
X520500Y615597D01*
X518535Y616620D01*
X516487Y617468D01*
X514374Y618135D01*
X512211Y618614D01*
X510014Y618903D01*
X507800Y619000D01*
X25400Y619000D01*
X23186Y618903D01*
X20989Y618614D01*
X18826Y618135D01*
X16713Y617468D01*
X14666Y616620D01*
X12700Y615597D01*
X10831Y614406D01*
X9073Y613058D01*
X7440Y611561D01*
X5942Y609927D01*
X4594Y608169D01*
X3403Y606300D01*
X2380Y604335D01*
X1532Y602287D01*
X865Y600174D01*
X386Y598011D01*
X97Y595814D01*
X0Y593600D01*
X0Y25400D01*
M02*
