G04 EAGLE Gerber X2 export*
%TF.Part,Single*%
%TF.FileFunction,Legend,Top,1*%
%TF.FilePolarity,Positive*%
%TF.GenerationSoftware,Autodesk,EAGLE,9.1.1*%
%TF.CreationDate,2018-09-28T16:37:10Z*%
G75*
%MOMM*%
%FSLAX34Y34*%
%LPD*%
%AMOC8*
5,1,8,0,0,1.08239X$1,22.5*%
G01*
%ADD10C,0.203200*%
%ADD11C,0.127000*%


D10*
X203200Y529590D02*
X203200Y537210D01*
X203200Y556260D02*
X203200Y558800D01*
X213106Y558800D01*
X215900Y556006D01*
X203200Y558800D02*
X193294Y558800D01*
X190500Y556006D01*
X203200Y510540D02*
X203200Y508000D01*
X193294Y508000D01*
X190500Y510794D01*
X203200Y508000D02*
X213106Y508000D01*
X215900Y510794D01*
D11*
X220345Y552536D02*
X224099Y552536D01*
X224164Y552534D01*
X224228Y552528D01*
X224292Y552518D01*
X224356Y552505D01*
X224418Y552487D01*
X224479Y552466D01*
X224539Y552442D01*
X224597Y552413D01*
X224654Y552381D01*
X224708Y552346D01*
X224760Y552308D01*
X224810Y552266D01*
X224857Y552222D01*
X224901Y552175D01*
X224943Y552125D01*
X224981Y552073D01*
X225016Y552019D01*
X225048Y551962D01*
X225077Y551904D01*
X225101Y551844D01*
X225122Y551783D01*
X225140Y551721D01*
X225153Y551657D01*
X225163Y551593D01*
X225169Y551529D01*
X225171Y551464D01*
X225171Y550927D01*
X224099Y555484D02*
X220345Y556556D01*
X224099Y555484D02*
X224099Y558165D01*
X223026Y557361D02*
X225171Y557361D01*
M02*
