G04 EAGLE Gerber X2 export*
%TF.Part,Single*%
%TF.FileFunction,Legend,Bot,1*%
%TF.FilePolarity,Positive*%
%TF.GenerationSoftware,Autodesk,EAGLE,9.1.1*%
%TF.CreationDate,2018-09-28T16:37:10Z*%
G75*
%MOMM*%
%FSLAX34Y34*%
%LPD*%
%AMOC8*
5,1,8,0,0,1.08239X$1,22.5*%
G01*
%ADD10C,0.203200*%
%ADD11C,0.127000*%
%ADD12C,0.254000*%
%ADD13C,0.101600*%


D10*
X71120Y495300D02*
X71120Y546100D01*
X63500Y546100D01*
X55880Y546100D01*
X55880Y495300D01*
X63500Y495300D01*
X71120Y495300D01*
X63500Y546100D02*
X63500Y548640D01*
X63500Y495300D02*
X63500Y492760D01*
X69850Y539750D02*
X57150Y539750D01*
D11*
X75565Y516525D02*
X80391Y516525D01*
X80391Y517865D01*
X80389Y517935D01*
X80384Y518005D01*
X80374Y518075D01*
X80362Y518144D01*
X80345Y518212D01*
X80325Y518279D01*
X80302Y518346D01*
X80275Y518410D01*
X80245Y518474D01*
X80211Y518536D01*
X80175Y518595D01*
X80135Y518653D01*
X80092Y518709D01*
X80047Y518762D01*
X79998Y518813D01*
X79947Y518862D01*
X79894Y518907D01*
X79838Y518950D01*
X79780Y518990D01*
X79721Y519026D01*
X79659Y519060D01*
X79595Y519090D01*
X79531Y519117D01*
X79464Y519140D01*
X79397Y519160D01*
X79329Y519177D01*
X79260Y519189D01*
X79190Y519199D01*
X79120Y519204D01*
X79050Y519206D01*
X76906Y519206D01*
X76836Y519204D01*
X76766Y519199D01*
X76696Y519189D01*
X76627Y519177D01*
X76559Y519160D01*
X76492Y519140D01*
X76425Y519117D01*
X76361Y519090D01*
X76297Y519060D01*
X76236Y519026D01*
X76176Y518990D01*
X76118Y518950D01*
X76062Y518907D01*
X76009Y518862D01*
X75958Y518813D01*
X75909Y518762D01*
X75864Y518709D01*
X75821Y518653D01*
X75781Y518595D01*
X75745Y518536D01*
X75711Y518474D01*
X75681Y518410D01*
X75654Y518346D01*
X75631Y518279D01*
X75611Y518212D01*
X75594Y518144D01*
X75582Y518075D01*
X75572Y518005D01*
X75567Y517935D01*
X75565Y517865D01*
X75565Y516525D01*
X79319Y522194D02*
X80391Y523535D01*
X75565Y523535D01*
X75565Y524875D02*
X75565Y522194D01*
D10*
X303530Y510540D02*
X303530Y505460D01*
X303530Y530860D02*
X303530Y535940D01*
X303530Y556260D02*
X303530Y561340D01*
X303530Y485140D02*
X303530Y482600D01*
X313436Y482600D01*
X316230Y485394D01*
X303530Y482600D02*
X293624Y482600D01*
X290830Y485394D01*
X303530Y581660D02*
X303530Y584200D01*
X293624Y584200D01*
X290830Y581406D01*
X303530Y584200D02*
X313436Y584200D01*
X316230Y581406D01*
D11*
X323017Y484844D02*
X326771Y484844D01*
X323017Y484843D02*
X322952Y484841D01*
X322888Y484835D01*
X322824Y484825D01*
X322760Y484812D01*
X322698Y484794D01*
X322637Y484773D01*
X322577Y484749D01*
X322519Y484720D01*
X322462Y484688D01*
X322408Y484653D01*
X322356Y484615D01*
X322306Y484573D01*
X322259Y484529D01*
X322215Y484482D01*
X322173Y484432D01*
X322135Y484380D01*
X322100Y484326D01*
X322068Y484269D01*
X322039Y484211D01*
X322015Y484151D01*
X321994Y484090D01*
X321976Y484028D01*
X321963Y483964D01*
X321953Y483900D01*
X321947Y483836D01*
X321945Y483771D01*
X321945Y483235D01*
X325699Y487792D02*
X326771Y489132D01*
X321945Y489132D01*
X321945Y487792D02*
X321945Y490473D01*
D10*
X362000Y501100D02*
X362000Y537100D01*
X413000Y501100D02*
X472000Y501100D01*
X389000Y501100D02*
X362000Y501100D01*
X362000Y591100D02*
X472000Y591100D01*
X362000Y591100D02*
X362000Y555100D01*
X472000Y591100D02*
X472000Y501100D01*
D11*
X482021Y555584D02*
X485775Y555584D01*
X482021Y555584D02*
X481956Y555582D01*
X481892Y555576D01*
X481828Y555566D01*
X481764Y555553D01*
X481702Y555535D01*
X481641Y555514D01*
X481581Y555490D01*
X481523Y555461D01*
X481466Y555429D01*
X481412Y555394D01*
X481360Y555356D01*
X481310Y555314D01*
X481263Y555270D01*
X481219Y555223D01*
X481177Y555173D01*
X481139Y555121D01*
X481104Y555067D01*
X481072Y555010D01*
X481043Y554952D01*
X481019Y554892D01*
X480998Y554831D01*
X480980Y554769D01*
X480967Y554705D01*
X480957Y554641D01*
X480951Y554577D01*
X480949Y554512D01*
X480949Y553975D01*
X485775Y560006D02*
X485773Y560074D01*
X485767Y560141D01*
X485758Y560208D01*
X485745Y560275D01*
X485728Y560340D01*
X485707Y560405D01*
X485683Y560468D01*
X485655Y560530D01*
X485624Y560590D01*
X485590Y560648D01*
X485552Y560704D01*
X485512Y560759D01*
X485468Y560810D01*
X485421Y560859D01*
X485372Y560906D01*
X485321Y560950D01*
X485266Y560990D01*
X485210Y561028D01*
X485152Y561062D01*
X485092Y561093D01*
X485030Y561121D01*
X484967Y561145D01*
X484902Y561166D01*
X484837Y561183D01*
X484770Y561196D01*
X484703Y561205D01*
X484636Y561211D01*
X484568Y561213D01*
X485775Y560006D02*
X485773Y559928D01*
X485767Y559850D01*
X485757Y559773D01*
X485744Y559696D01*
X485726Y559620D01*
X485705Y559545D01*
X485680Y559471D01*
X485651Y559399D01*
X485619Y559328D01*
X485583Y559259D01*
X485544Y559191D01*
X485501Y559126D01*
X485455Y559063D01*
X485406Y559002D01*
X485354Y558944D01*
X485299Y558889D01*
X485242Y558836D01*
X485182Y558787D01*
X485119Y558740D01*
X485054Y558697D01*
X484988Y558657D01*
X484919Y558620D01*
X484848Y558587D01*
X484776Y558557D01*
X484703Y558531D01*
X483630Y560811D02*
X483679Y560860D01*
X483731Y560907D01*
X483786Y560950D01*
X483843Y560991D01*
X483902Y561029D01*
X483963Y561063D01*
X484026Y561094D01*
X484090Y561122D01*
X484156Y561146D01*
X484222Y561166D01*
X484290Y561183D01*
X484359Y561196D01*
X484428Y561205D01*
X484498Y561211D01*
X484568Y561213D01*
X483630Y560811D02*
X480949Y558532D01*
X480949Y561213D01*
D10*
X153670Y568960D02*
X153670Y574040D01*
X153670Y548640D02*
X153670Y543560D01*
X153670Y523240D02*
X153670Y518160D01*
X153670Y497840D02*
X153670Y492760D01*
X153670Y594360D02*
X153670Y596900D01*
X143764Y596900D01*
X140970Y594106D01*
X153670Y596900D02*
X163576Y596900D01*
X166370Y594106D01*
X153670Y472440D02*
X153670Y469900D01*
X163576Y469900D01*
X166370Y472694D01*
X153670Y469900D02*
X143764Y469900D01*
X140970Y472694D01*
D11*
X133985Y590636D02*
X130231Y590636D01*
X130166Y590634D01*
X130102Y590628D01*
X130038Y590618D01*
X129974Y590605D01*
X129912Y590587D01*
X129851Y590566D01*
X129791Y590542D01*
X129733Y590513D01*
X129676Y590481D01*
X129622Y590446D01*
X129570Y590408D01*
X129520Y590366D01*
X129473Y590322D01*
X129429Y590275D01*
X129387Y590225D01*
X129349Y590173D01*
X129314Y590119D01*
X129282Y590062D01*
X129253Y590004D01*
X129229Y589944D01*
X129208Y589883D01*
X129190Y589821D01*
X129177Y589757D01*
X129167Y589693D01*
X129161Y589629D01*
X129159Y589564D01*
X129159Y589027D01*
X129159Y593584D02*
X129159Y594924D01*
X129161Y594995D01*
X129167Y595067D01*
X129176Y595137D01*
X129189Y595207D01*
X129206Y595277D01*
X129227Y595345D01*
X129251Y595412D01*
X129279Y595478D01*
X129310Y595542D01*
X129345Y595605D01*
X129383Y595665D01*
X129424Y595724D01*
X129468Y595780D01*
X129515Y595834D01*
X129564Y595885D01*
X129617Y595933D01*
X129672Y595979D01*
X129729Y596021D01*
X129789Y596061D01*
X129850Y596097D01*
X129914Y596130D01*
X129979Y596159D01*
X130045Y596185D01*
X130113Y596208D01*
X130182Y596227D01*
X130252Y596242D01*
X130322Y596253D01*
X130393Y596261D01*
X130464Y596265D01*
X130536Y596265D01*
X130607Y596261D01*
X130678Y596253D01*
X130748Y596242D01*
X130818Y596227D01*
X130887Y596208D01*
X130955Y596185D01*
X131021Y596159D01*
X131086Y596130D01*
X131150Y596097D01*
X131211Y596061D01*
X131271Y596021D01*
X131328Y595979D01*
X131383Y595933D01*
X131436Y595885D01*
X131485Y595834D01*
X131532Y595780D01*
X131576Y595724D01*
X131617Y595665D01*
X131655Y595605D01*
X131690Y595542D01*
X131721Y595478D01*
X131749Y595412D01*
X131773Y595345D01*
X131794Y595277D01*
X131811Y595207D01*
X131824Y595137D01*
X131833Y595067D01*
X131839Y594995D01*
X131841Y594924D01*
X133985Y595193D02*
X133985Y593584D01*
X133985Y595193D02*
X133983Y595258D01*
X133977Y595322D01*
X133967Y595386D01*
X133954Y595450D01*
X133936Y595512D01*
X133915Y595573D01*
X133891Y595633D01*
X133862Y595691D01*
X133830Y595748D01*
X133795Y595802D01*
X133757Y595854D01*
X133715Y595904D01*
X133671Y595951D01*
X133624Y595995D01*
X133574Y596037D01*
X133522Y596075D01*
X133468Y596110D01*
X133411Y596142D01*
X133353Y596171D01*
X133293Y596195D01*
X133232Y596216D01*
X133170Y596234D01*
X133106Y596247D01*
X133042Y596257D01*
X132978Y596263D01*
X132913Y596265D01*
X132848Y596263D01*
X132784Y596257D01*
X132720Y596247D01*
X132656Y596234D01*
X132594Y596216D01*
X132533Y596195D01*
X132473Y596171D01*
X132415Y596142D01*
X132358Y596110D01*
X132304Y596075D01*
X132252Y596037D01*
X132202Y595995D01*
X132155Y595951D01*
X132111Y595904D01*
X132069Y595854D01*
X132031Y595802D01*
X131996Y595748D01*
X131964Y595691D01*
X131935Y595633D01*
X131911Y595573D01*
X131890Y595512D01*
X131872Y595450D01*
X131859Y595386D01*
X131849Y595322D01*
X131843Y595258D01*
X131841Y595193D01*
X131840Y595193D02*
X131840Y594120D01*
D12*
X425450Y463550D02*
X425450Y349250D01*
X425450Y463550D02*
X336550Y463550D01*
X336550Y349250D01*
X425450Y349250D01*
D13*
X406245Y387858D02*
X402745Y387858D01*
X406245Y387858D02*
X406338Y387860D01*
X406430Y387866D01*
X406523Y387876D01*
X406615Y387889D01*
X406706Y387907D01*
X406796Y387929D01*
X406885Y387954D01*
X406974Y387983D01*
X407060Y388016D01*
X407146Y388052D01*
X407230Y388092D01*
X407312Y388136D01*
X407392Y388183D01*
X407470Y388233D01*
X407545Y388287D01*
X407619Y388343D01*
X407690Y388403D01*
X407758Y388466D01*
X407824Y388532D01*
X407887Y388600D01*
X407947Y388671D01*
X408003Y388745D01*
X408057Y388820D01*
X408107Y388898D01*
X408154Y388978D01*
X408198Y389060D01*
X408238Y389144D01*
X408274Y389230D01*
X408307Y389316D01*
X408336Y389405D01*
X408361Y389494D01*
X408383Y389584D01*
X408401Y389675D01*
X408414Y389767D01*
X408424Y389860D01*
X408430Y389952D01*
X408432Y390045D01*
X408430Y390138D01*
X408424Y390230D01*
X408414Y390323D01*
X408401Y390415D01*
X408383Y390506D01*
X408361Y390596D01*
X408336Y390685D01*
X408307Y390774D01*
X408274Y390860D01*
X408238Y390946D01*
X408198Y391030D01*
X408154Y391112D01*
X408107Y391192D01*
X408057Y391270D01*
X408003Y391345D01*
X407947Y391419D01*
X407887Y391490D01*
X407824Y391558D01*
X407758Y391624D01*
X407690Y391687D01*
X407619Y391747D01*
X407545Y391803D01*
X407470Y391857D01*
X407392Y391907D01*
X407312Y391954D01*
X407230Y391998D01*
X407146Y392038D01*
X407060Y392074D01*
X406974Y392107D01*
X406885Y392136D01*
X406796Y392161D01*
X406706Y392183D01*
X406615Y392201D01*
X406523Y392214D01*
X406430Y392224D01*
X406338Y392230D01*
X406245Y392232D01*
X402745Y392232D01*
X402652Y392230D01*
X402560Y392224D01*
X402467Y392214D01*
X402375Y392201D01*
X402284Y392183D01*
X402194Y392161D01*
X402105Y392136D01*
X402016Y392107D01*
X401930Y392074D01*
X401844Y392038D01*
X401760Y391998D01*
X401678Y391954D01*
X401598Y391907D01*
X401520Y391857D01*
X401445Y391803D01*
X401371Y391747D01*
X401300Y391687D01*
X401232Y391624D01*
X401166Y391558D01*
X401103Y391490D01*
X401043Y391419D01*
X400987Y391345D01*
X400933Y391270D01*
X400883Y391192D01*
X400836Y391112D01*
X400792Y391030D01*
X400752Y390946D01*
X400716Y390860D01*
X400683Y390774D01*
X400654Y390685D01*
X400629Y390596D01*
X400607Y390506D01*
X400589Y390415D01*
X400576Y390323D01*
X400566Y390230D01*
X400560Y390138D01*
X400558Y390045D01*
X400560Y389952D01*
X400566Y389860D01*
X400576Y389767D01*
X400589Y389675D01*
X400607Y389584D01*
X400629Y389494D01*
X400654Y389405D01*
X400683Y389316D01*
X400716Y389230D01*
X400752Y389144D01*
X400792Y389060D01*
X400836Y388978D01*
X400883Y388898D01*
X400933Y388820D01*
X400987Y388745D01*
X401043Y388671D01*
X401103Y388600D01*
X401166Y388532D01*
X401232Y388466D01*
X401300Y388403D01*
X401371Y388343D01*
X401445Y388287D01*
X401520Y388233D01*
X401598Y388183D01*
X401678Y388136D01*
X401760Y388092D01*
X401844Y388052D01*
X401930Y388016D01*
X402016Y387983D01*
X402105Y387954D01*
X402194Y387929D01*
X402284Y387907D01*
X402375Y387889D01*
X402467Y387876D01*
X402560Y387866D01*
X402652Y387860D01*
X402745Y387858D01*
X402308Y391358D02*
X400558Y393107D01*
X406682Y395559D02*
X408432Y397746D01*
X400558Y397746D01*
X400558Y395559D02*
X400558Y399933D01*
D12*
X425450Y311150D02*
X425450Y196850D01*
X425450Y311150D02*
X336550Y311150D01*
X336550Y196850D01*
X425450Y196850D01*
D13*
X406245Y235458D02*
X402745Y235458D01*
X406245Y235458D02*
X406338Y235460D01*
X406430Y235466D01*
X406523Y235476D01*
X406615Y235489D01*
X406706Y235507D01*
X406796Y235529D01*
X406885Y235554D01*
X406974Y235583D01*
X407060Y235616D01*
X407146Y235652D01*
X407230Y235692D01*
X407312Y235736D01*
X407392Y235783D01*
X407470Y235833D01*
X407545Y235887D01*
X407619Y235943D01*
X407690Y236003D01*
X407758Y236066D01*
X407824Y236132D01*
X407887Y236200D01*
X407947Y236271D01*
X408003Y236345D01*
X408057Y236420D01*
X408107Y236498D01*
X408154Y236578D01*
X408198Y236660D01*
X408238Y236744D01*
X408274Y236830D01*
X408307Y236916D01*
X408336Y237005D01*
X408361Y237094D01*
X408383Y237184D01*
X408401Y237275D01*
X408414Y237367D01*
X408424Y237460D01*
X408430Y237552D01*
X408432Y237645D01*
X408430Y237738D01*
X408424Y237830D01*
X408414Y237923D01*
X408401Y238015D01*
X408383Y238106D01*
X408361Y238196D01*
X408336Y238285D01*
X408307Y238374D01*
X408274Y238460D01*
X408238Y238546D01*
X408198Y238630D01*
X408154Y238712D01*
X408107Y238792D01*
X408057Y238870D01*
X408003Y238945D01*
X407947Y239019D01*
X407887Y239090D01*
X407824Y239158D01*
X407758Y239224D01*
X407690Y239287D01*
X407619Y239347D01*
X407545Y239403D01*
X407470Y239457D01*
X407392Y239507D01*
X407312Y239554D01*
X407230Y239598D01*
X407146Y239638D01*
X407060Y239674D01*
X406974Y239707D01*
X406885Y239736D01*
X406796Y239761D01*
X406706Y239783D01*
X406615Y239801D01*
X406523Y239814D01*
X406430Y239824D01*
X406338Y239830D01*
X406245Y239832D01*
X402745Y239832D01*
X402652Y239830D01*
X402560Y239824D01*
X402467Y239814D01*
X402375Y239801D01*
X402284Y239783D01*
X402194Y239761D01*
X402105Y239736D01*
X402016Y239707D01*
X401930Y239674D01*
X401844Y239638D01*
X401760Y239598D01*
X401678Y239554D01*
X401598Y239507D01*
X401520Y239457D01*
X401445Y239403D01*
X401371Y239347D01*
X401300Y239287D01*
X401232Y239224D01*
X401166Y239158D01*
X401103Y239090D01*
X401043Y239019D01*
X400987Y238945D01*
X400933Y238870D01*
X400883Y238792D01*
X400836Y238712D01*
X400792Y238630D01*
X400752Y238546D01*
X400716Y238460D01*
X400683Y238374D01*
X400654Y238285D01*
X400629Y238196D01*
X400607Y238106D01*
X400589Y238015D01*
X400576Y237923D01*
X400566Y237830D01*
X400560Y237738D01*
X400558Y237645D01*
X400560Y237552D01*
X400566Y237460D01*
X400576Y237367D01*
X400589Y237275D01*
X400607Y237184D01*
X400629Y237094D01*
X400654Y237005D01*
X400683Y236916D01*
X400716Y236830D01*
X400752Y236744D01*
X400792Y236660D01*
X400836Y236578D01*
X400883Y236498D01*
X400933Y236420D01*
X400987Y236345D01*
X401043Y236271D01*
X401103Y236200D01*
X401166Y236132D01*
X401232Y236066D01*
X401300Y236003D01*
X401371Y235943D01*
X401445Y235887D01*
X401520Y235833D01*
X401598Y235783D01*
X401678Y235736D01*
X401760Y235692D01*
X401844Y235652D01*
X401930Y235616D01*
X402016Y235583D01*
X402105Y235554D01*
X402194Y235529D01*
X402284Y235507D01*
X402375Y235489D01*
X402467Y235476D01*
X402560Y235466D01*
X402652Y235460D01*
X402745Y235458D01*
X402308Y238958D02*
X400558Y240707D01*
X406464Y247534D02*
X406550Y247532D01*
X406636Y247527D01*
X406721Y247517D01*
X406806Y247504D01*
X406890Y247487D01*
X406974Y247467D01*
X407056Y247443D01*
X407137Y247415D01*
X407218Y247384D01*
X407296Y247350D01*
X407373Y247312D01*
X407449Y247270D01*
X407522Y247226D01*
X407593Y247178D01*
X407663Y247127D01*
X407730Y247073D01*
X407794Y247017D01*
X407856Y246957D01*
X407916Y246895D01*
X407972Y246831D01*
X408026Y246764D01*
X408077Y246694D01*
X408125Y246623D01*
X408169Y246550D01*
X408211Y246474D01*
X408249Y246397D01*
X408283Y246319D01*
X408314Y246238D01*
X408342Y246157D01*
X408366Y246075D01*
X408386Y245991D01*
X408403Y245907D01*
X408416Y245822D01*
X408426Y245737D01*
X408431Y245651D01*
X408433Y245565D01*
X408432Y245565D02*
X408430Y245466D01*
X408424Y245366D01*
X408414Y245268D01*
X408401Y245169D01*
X408383Y245071D01*
X408362Y244974D01*
X408337Y244878D01*
X408308Y244783D01*
X408275Y244689D01*
X408239Y244596D01*
X408199Y244505D01*
X408156Y244416D01*
X408109Y244328D01*
X408059Y244243D01*
X408005Y244159D01*
X407948Y244078D01*
X407888Y243998D01*
X407825Y243922D01*
X407759Y243847D01*
X407690Y243776D01*
X407619Y243707D01*
X407544Y243641D01*
X407467Y243578D01*
X407388Y243518D01*
X407306Y243461D01*
X407223Y243408D01*
X407137Y243357D01*
X407049Y243311D01*
X406960Y243267D01*
X406869Y243228D01*
X406776Y243192D01*
X406682Y243159D01*
X404933Y246877D02*
X404997Y246941D01*
X405063Y247002D01*
X405132Y247060D01*
X405203Y247115D01*
X405276Y247168D01*
X405352Y247217D01*
X405429Y247262D01*
X405509Y247305D01*
X405590Y247344D01*
X405673Y247379D01*
X405757Y247411D01*
X405843Y247440D01*
X405929Y247464D01*
X406017Y247485D01*
X406105Y247502D01*
X406194Y247516D01*
X406284Y247525D01*
X406374Y247531D01*
X406464Y247533D01*
X404932Y246877D02*
X400558Y243159D01*
X400558Y247533D01*
D12*
X425450Y158750D02*
X425450Y44450D01*
X425450Y158750D02*
X336550Y158750D01*
X336550Y44450D01*
X425450Y44450D01*
D13*
X406245Y83058D02*
X402745Y83058D01*
X406245Y83058D02*
X406338Y83060D01*
X406430Y83066D01*
X406523Y83076D01*
X406615Y83089D01*
X406706Y83107D01*
X406796Y83129D01*
X406885Y83154D01*
X406974Y83183D01*
X407060Y83216D01*
X407146Y83252D01*
X407230Y83292D01*
X407312Y83336D01*
X407392Y83383D01*
X407470Y83433D01*
X407545Y83487D01*
X407619Y83543D01*
X407690Y83603D01*
X407758Y83666D01*
X407824Y83732D01*
X407887Y83800D01*
X407947Y83871D01*
X408003Y83945D01*
X408057Y84020D01*
X408107Y84098D01*
X408154Y84178D01*
X408198Y84260D01*
X408238Y84344D01*
X408274Y84430D01*
X408307Y84516D01*
X408336Y84605D01*
X408361Y84694D01*
X408383Y84784D01*
X408401Y84875D01*
X408414Y84967D01*
X408424Y85060D01*
X408430Y85152D01*
X408432Y85245D01*
X408430Y85338D01*
X408424Y85430D01*
X408414Y85523D01*
X408401Y85615D01*
X408383Y85706D01*
X408361Y85796D01*
X408336Y85885D01*
X408307Y85974D01*
X408274Y86060D01*
X408238Y86146D01*
X408198Y86230D01*
X408154Y86312D01*
X408107Y86392D01*
X408057Y86470D01*
X408003Y86545D01*
X407947Y86619D01*
X407887Y86690D01*
X407824Y86758D01*
X407758Y86824D01*
X407690Y86887D01*
X407619Y86947D01*
X407545Y87003D01*
X407470Y87057D01*
X407392Y87107D01*
X407312Y87154D01*
X407230Y87198D01*
X407146Y87238D01*
X407060Y87274D01*
X406974Y87307D01*
X406885Y87336D01*
X406796Y87361D01*
X406706Y87383D01*
X406615Y87401D01*
X406523Y87414D01*
X406430Y87424D01*
X406338Y87430D01*
X406245Y87432D01*
X402745Y87432D01*
X402652Y87430D01*
X402560Y87424D01*
X402467Y87414D01*
X402375Y87401D01*
X402284Y87383D01*
X402194Y87361D01*
X402105Y87336D01*
X402016Y87307D01*
X401930Y87274D01*
X401844Y87238D01*
X401760Y87198D01*
X401678Y87154D01*
X401598Y87107D01*
X401520Y87057D01*
X401445Y87003D01*
X401371Y86947D01*
X401300Y86887D01*
X401232Y86824D01*
X401166Y86758D01*
X401103Y86690D01*
X401043Y86619D01*
X400987Y86545D01*
X400933Y86470D01*
X400883Y86392D01*
X400836Y86312D01*
X400792Y86230D01*
X400752Y86146D01*
X400716Y86060D01*
X400683Y85974D01*
X400654Y85885D01*
X400629Y85796D01*
X400607Y85706D01*
X400589Y85615D01*
X400576Y85523D01*
X400566Y85430D01*
X400560Y85338D01*
X400558Y85245D01*
X400560Y85152D01*
X400566Y85060D01*
X400576Y84967D01*
X400589Y84875D01*
X400607Y84784D01*
X400629Y84694D01*
X400654Y84605D01*
X400683Y84516D01*
X400716Y84430D01*
X400752Y84344D01*
X400792Y84260D01*
X400836Y84178D01*
X400883Y84098D01*
X400933Y84020D01*
X400987Y83945D01*
X401043Y83871D01*
X401103Y83800D01*
X401166Y83732D01*
X401232Y83666D01*
X401300Y83603D01*
X401371Y83543D01*
X401445Y83487D01*
X401520Y83433D01*
X401598Y83383D01*
X401678Y83336D01*
X401760Y83292D01*
X401844Y83252D01*
X401930Y83216D01*
X402016Y83183D01*
X402105Y83154D01*
X402194Y83129D01*
X402284Y83107D01*
X402375Y83089D01*
X402467Y83076D01*
X402560Y83066D01*
X402652Y83060D01*
X402745Y83058D01*
X402308Y86558D02*
X400558Y88307D01*
X400558Y90759D02*
X400558Y92946D01*
X400560Y93039D01*
X400566Y93131D01*
X400576Y93224D01*
X400589Y93316D01*
X400607Y93407D01*
X400629Y93497D01*
X400654Y93586D01*
X400683Y93675D01*
X400716Y93761D01*
X400752Y93847D01*
X400792Y93931D01*
X400836Y94013D01*
X400883Y94093D01*
X400933Y94171D01*
X400987Y94246D01*
X401043Y94320D01*
X401103Y94391D01*
X401166Y94459D01*
X401232Y94525D01*
X401300Y94588D01*
X401371Y94648D01*
X401445Y94704D01*
X401520Y94758D01*
X401598Y94808D01*
X401678Y94855D01*
X401760Y94899D01*
X401844Y94939D01*
X401930Y94975D01*
X402016Y95008D01*
X402105Y95037D01*
X402194Y95062D01*
X402284Y95084D01*
X402375Y95102D01*
X402467Y95115D01*
X402560Y95125D01*
X402652Y95131D01*
X402745Y95133D01*
X402838Y95131D01*
X402930Y95125D01*
X403023Y95115D01*
X403115Y95102D01*
X403206Y95084D01*
X403296Y95062D01*
X403385Y95037D01*
X403474Y95008D01*
X403560Y94975D01*
X403646Y94939D01*
X403730Y94899D01*
X403812Y94855D01*
X403892Y94808D01*
X403970Y94758D01*
X404045Y94704D01*
X404119Y94648D01*
X404190Y94588D01*
X404258Y94525D01*
X404324Y94459D01*
X404387Y94391D01*
X404447Y94320D01*
X404503Y94246D01*
X404557Y94171D01*
X404607Y94093D01*
X404654Y94013D01*
X404698Y93931D01*
X404738Y93847D01*
X404774Y93761D01*
X404807Y93675D01*
X404836Y93586D01*
X404861Y93497D01*
X404883Y93407D01*
X404901Y93316D01*
X404914Y93224D01*
X404924Y93131D01*
X404930Y93039D01*
X404932Y92946D01*
X408432Y93383D02*
X408432Y90759D01*
X408432Y93383D02*
X408430Y93465D01*
X408424Y93547D01*
X408415Y93628D01*
X408401Y93709D01*
X408384Y93790D01*
X408363Y93869D01*
X408339Y93947D01*
X408310Y94024D01*
X408278Y94100D01*
X408243Y94174D01*
X408204Y94246D01*
X408162Y94317D01*
X408117Y94385D01*
X408068Y94451D01*
X408017Y94515D01*
X407962Y94576D01*
X407905Y94635D01*
X407845Y94691D01*
X407782Y94744D01*
X407717Y94794D01*
X407650Y94841D01*
X407581Y94885D01*
X407509Y94925D01*
X407436Y94962D01*
X407361Y94996D01*
X407285Y95026D01*
X407207Y95052D01*
X407128Y95075D01*
X407049Y95094D01*
X406968Y95109D01*
X406887Y95121D01*
X406805Y95129D01*
X406723Y95133D01*
X406641Y95133D01*
X406559Y95129D01*
X406477Y95121D01*
X406396Y95109D01*
X406315Y95094D01*
X406236Y95075D01*
X406157Y95052D01*
X406079Y95026D01*
X406003Y94996D01*
X405928Y94962D01*
X405855Y94925D01*
X405783Y94885D01*
X405714Y94841D01*
X405647Y94794D01*
X405582Y94744D01*
X405519Y94691D01*
X405459Y94635D01*
X405402Y94576D01*
X405347Y94515D01*
X405296Y94451D01*
X405247Y94385D01*
X405202Y94317D01*
X405160Y94246D01*
X405121Y94174D01*
X405086Y94100D01*
X405054Y94024D01*
X405025Y93947D01*
X405001Y93869D01*
X404980Y93790D01*
X404963Y93709D01*
X404949Y93628D01*
X404940Y93547D01*
X404934Y93465D01*
X404932Y93383D01*
X404932Y91634D01*
D10*
X109220Y495300D02*
X109220Y546100D01*
X101600Y546100D01*
X93980Y546100D01*
X93980Y495300D01*
X101600Y495300D01*
X109220Y495300D01*
X101600Y546100D02*
X101600Y548640D01*
X101600Y495300D02*
X101600Y492760D01*
D11*
X112395Y516648D02*
X117221Y516648D01*
X117221Y517989D01*
X117219Y518060D01*
X117213Y518132D01*
X117204Y518202D01*
X117191Y518272D01*
X117174Y518342D01*
X117153Y518410D01*
X117129Y518477D01*
X117101Y518543D01*
X117070Y518607D01*
X117035Y518670D01*
X116997Y518730D01*
X116956Y518789D01*
X116912Y518845D01*
X116865Y518899D01*
X116816Y518950D01*
X116763Y518998D01*
X116708Y519044D01*
X116651Y519086D01*
X116591Y519126D01*
X116530Y519162D01*
X116466Y519195D01*
X116401Y519224D01*
X116335Y519250D01*
X116267Y519273D01*
X116198Y519292D01*
X116128Y519307D01*
X116058Y519318D01*
X115987Y519326D01*
X115916Y519330D01*
X115844Y519330D01*
X115773Y519326D01*
X115702Y519318D01*
X115632Y519307D01*
X115562Y519292D01*
X115493Y519273D01*
X115425Y519250D01*
X115359Y519224D01*
X115294Y519195D01*
X115230Y519162D01*
X115169Y519126D01*
X115109Y519086D01*
X115052Y519044D01*
X114997Y518998D01*
X114944Y518950D01*
X114895Y518899D01*
X114848Y518845D01*
X114804Y518789D01*
X114763Y518730D01*
X114725Y518670D01*
X114690Y518607D01*
X114659Y518543D01*
X114631Y518477D01*
X114607Y518410D01*
X114586Y518342D01*
X114569Y518272D01*
X114556Y518202D01*
X114547Y518132D01*
X114541Y518060D01*
X114539Y517989D01*
X114540Y517989D02*
X114540Y516648D01*
X114540Y518257D02*
X112395Y519329D01*
X116149Y522071D02*
X117221Y523411D01*
X112395Y523411D01*
X112395Y522071D02*
X112395Y524752D01*
M02*
