G04 EAGLE Gerber X2 export*
%TF.Part,Single*%
%TF.FileFunction,Soldermask,Top,1*%
%TF.FilePolarity,Negative*%
%TF.GenerationSoftware,Autodesk,EAGLE,9.1.1*%
%TF.CreationDate,2018-09-28T16:37:10Z*%
G75*
%MOMM*%
%FSLAX34Y34*%
%LPD*%
%AMOC8*
5,1,8,0,0,1.08239X$1,22.5*%
G01*
%ADD10C,1.981200*%
%ADD11C,1.625600*%
%ADD12C,2.051600*%
%ADD13C,2.133600*%
%ADD14C,7.721600*%
%ADD15C,1.409600*%


D10*
X63500Y482600D03*
X63500Y558800D03*
D11*
X300990Y495300D02*
X308610Y495300D01*
X306070Y520700D02*
X298450Y520700D01*
X300990Y546100D02*
X308610Y546100D01*
X306070Y571500D02*
X298450Y571500D01*
D12*
X371000Y546100D03*
X429000Y546100D03*
X401000Y498100D03*
D11*
X156210Y584200D02*
X148590Y584200D01*
X151130Y558800D02*
X158750Y558800D01*
X156210Y533400D02*
X148590Y533400D01*
X151130Y508000D02*
X158750Y508000D01*
X156210Y482600D02*
X148590Y482600D01*
D13*
X287020Y381000D02*
X297180Y381000D01*
X297180Y406400D02*
X287020Y406400D01*
X287020Y431800D02*
X297180Y431800D01*
D14*
X469900Y406400D03*
D13*
X297180Y228600D02*
X287020Y228600D01*
X287020Y254000D02*
X297180Y254000D01*
X297180Y279400D02*
X287020Y279400D01*
D14*
X469900Y254000D03*
D13*
X297180Y76200D02*
X287020Y76200D01*
X287020Y101600D02*
X297180Y101600D01*
X297180Y127000D02*
X287020Y127000D01*
D14*
X469900Y101600D03*
D10*
X101600Y482600D03*
X101600Y558800D03*
D15*
X199930Y406400D02*
X206470Y406400D01*
X206470Y381000D02*
X199930Y381000D01*
X199930Y355600D02*
X206470Y355600D01*
X206470Y330200D02*
X199930Y330200D01*
X199930Y304800D02*
X206470Y304800D01*
X206470Y279400D02*
X199930Y279400D01*
X199930Y254000D02*
X206470Y254000D01*
X206470Y228600D02*
X199930Y228600D01*
X199930Y203200D02*
X206470Y203200D01*
X206470Y177800D02*
X199930Y177800D01*
X199930Y152400D02*
X206470Y152400D01*
X206470Y127000D02*
X199930Y127000D01*
X54070Y406400D02*
X47530Y406400D01*
X47530Y381000D02*
X54070Y381000D01*
X54070Y355600D02*
X47530Y355600D01*
X47530Y203200D02*
X54070Y203200D01*
X54070Y177800D02*
X47530Y177800D01*
X47530Y152400D02*
X54070Y152400D01*
X54070Y127000D02*
X47530Y127000D01*
X47530Y50800D02*
X54070Y50800D01*
X199930Y50800D02*
X206470Y50800D01*
X206470Y76200D02*
X199930Y76200D01*
X199930Y101600D02*
X206470Y101600D01*
X54070Y76200D02*
X47530Y76200D01*
X47530Y101600D02*
X54070Y101600D01*
X54070Y330200D02*
X47530Y330200D01*
X47530Y228600D02*
X54070Y228600D01*
X54070Y254000D02*
X47530Y254000D01*
X47530Y279400D02*
X54070Y279400D01*
X54070Y304800D02*
X47530Y304800D01*
D11*
X199390Y547370D02*
X207010Y547370D01*
X207010Y519430D02*
X199390Y519430D01*
M02*
